<svg class="svg-icon" style="width: 1em;height: 1em;vertical-align: middle;fill: currentColor;overflow: hidden;" viewBox="0 0 1024 1024" version="1.1" xmlns="http://www.w3.org/2000/svg"><path d="M509.6 282.8c-4.8-4.8-10.2-7.2-15.6-8.4-3.6-1.8-7.8-2.4-12-2.4s-8.4 0.6-12 2.4c-5.4 1.2-10.8 3.6-15.6 8.4l-294 294c-13.2 13.2-13.2 33.6 0 46.8 13.2 13.2 33.6 13.2 46.8 0L452 378.8V902c0 16.8 13.2 30 30 30s30-13.2 30-30V378.8l244.8 244.8c13.2 13.2 33.6 13.2 46.8 0 13.2-13.2 13.2-33.6 0-46.8l-294-294zM842 152H122c-16.8 0-30 13.2-30 30s13.2 30 30 30h720c16.8 0 30-13.2 30-30s-13.2-30-30-30z"  /></svg>