<?xml version="1.0" ?><svg id="Line" style="enable-background:new 0 0 128 128;" version="1.1" viewBox="0 0 128 128" xml:space="preserve" xmlns="http://www.w3.org/2000/svg" xmlns:xlink="http://www.w3.org/1999/xlink"><g><path d="M47,38c-2.757,0-5,2.243-5,5s2.243,5,5,5s5-2.243,5-5S49.757,38,47,38z M47,46c-1.654,0-3-1.346-3-3s1.346-3,3-3   s3,1.346,3,3S48.654,46,47,46z"/><path d="M17.002,69c-2.757,0-5,2.243-5,5s2.243,5,5,5s5-2.243,5-5S19.759,69,17.002,69z M17.002,77c-1.654,0-3-1.346-3-3   s1.346-3,3-3s3,1.346,3,3S18.656,77,17.002,77z"/><path d="M65,29h24c1.654,0,3-1.346,3-3v-4c0-1.654-1.346-3-3-3H65c-1.654,0-3,1.346-3,3v4C62,27.654,63.346,29,65,29z M64,22   c0-0.551,0.449-1,1-1h24c0.551,0,1,0.449,1,1v4c0,0.551-0.449,1-1,1H65c-0.551,0-1-0.449-1-1V22z"/><path d="M80,110c20.402,0,37-16.598,37-37s-16.598-37-37-37S43,52.598,43,73S59.598,110,80,110z M80,38c19.299,0,35,15.701,35,35   s-15.701,35-35,35S45,92.299,45,73S60.701,38,80,38z"/><path d="M80.062,102c16.025,0,29.062-13.009,29.062-29S96.087,44,80.062,44S51,57.009,51,73S64.038,102,80.062,102z M80.062,46   c14.922,0,27.062,12.112,27.062,27s-12.14,27-27.062,27S53,87.888,53,73S65.14,46,80.062,46z"/><path d="M80.062,91c9.946,0,18.038-8.075,18.038-18s-8.092-18-18.038-18s-18.038,8.075-18.038,18S70.116,91,80.062,91z M80.062,57   c8.843,0,16.038,7.178,16.038,16s-7.195,16-16.038,16s-16.038-7.178-16.038-16S71.219,57,80.062,57z"/><path d="M80,86c7.168,0,13-5.832,13-13s-5.832-13-13-13s-13,5.832-13,13S72.832,86,80,86z M80,62c6.065,0,11,4.935,11,11   s-4.935,11-11,11s-11-4.935-11-11S73.935,62,80,62z"/><path d="M107.243,34.03c-3.098-0.774-5.595-5.854-8.239-11.233c-0.363-0.739-0.732-1.489-1.109-2.244   C95.057,14.877,91.055,12,86,12H68c-5.055,0-9.057,2.877-11.895,8.553c-0.86,1.72-1.53,3.379-2.178,4.982   C52.702,28.569,51.7,31.036,50,32.538V31c0-2.757-2.243-5-5-5H31c-2.757,0-5,2.243-5,5h-3c-1.103,0-2,0.897-2,2v2.078   C8.785,35.867,1,43.894,1,56l0.002,52.935c0,3.344,2.691,6.065,6,6.065h22H116c5.86,0,11-5.607,11-12V60   C127,45.373,121.47,38.094,107.243,34.03z M55.782,26.284c0.633-1.567,1.288-3.188,2.113-4.837C60.365,16.505,63.765,14,68,14h18   c4.235,0,7.635,2.505,10.105,7.447c0.375,0.75,0.742,1.497,1.104,2.232c2.978,6.059,5.55,11.292,9.516,12.282   C120.047,39.768,125,46.283,125,60v28h-5c-1.798,0-3.422,1.104-3.949,2.684l-1.009,3.029c-1.194,3.982-3.666,8.215-6.842,11.687   l-5.7,7.6H33.46c0.954-1.063,1.54-2.462,1.54-4V61.303l1.854-2.782c2.375-3.89,3.221-10.662,0.246-16.078   c-1.108-2.016-3.001-4.275-6.188-5.772l16.131-0.672c0.042-0.001,0.083-0.006,0.123-0.013c0.825-0.137,1.551-0.37,2.21-0.671   c0.01-0.004,0.019-0.008,0.029-0.013C52.752,33.757,54.18,30.25,55.782,26.284z M41,34.249V28h2v6.166L41,34.249z M39,34.332   l-2,0.083V28h2V34.332z M35,34.499l-2,0.083V28h2V34.499z M48,31v2.71c-0.346,0.122-0.709,0.224-1.105,0.293L45,34.082V28   C46.654,28,48,29.346,48,31z M28,31c0-1.654,1.346-3,3-3v6.666l-3,0.125V31z M26,33v1.874l-3,0.125V33H26z M3.002,108.935L3,56   c0-11.539,7.847-18.997,19.991-19c5.839,0.107,10.111,2.322,12.355,6.406c2.582,4.699,1.824,10.758-0.178,14.039l-2,3   C33.059,60.609,33,60.803,33,61v48c0,2.243-1.756,4-3.998,4h-22C4.796,113,3.002,111.176,3.002,108.935z M116,113h-11.001   l4.739-6.324c3.31-3.611,5.942-8.127,7.211-12.359l1-3C118.203,90.554,119.065,90,120,90h5v13C125,107.721,121.151,113,116,113z"/></g></svg>